<svg width="17" height="17" viewBox="0 0 17 17" fill="currentColor" xmlns="http://www.w3.org/2000/svg">
<path fill-rule="evenodd" clip-rule="evenodd" d="M6.74013 1.55967C7.53264 -0.342322 10.2271 -0.34232 11.0196 1.55968C11.1743 1.93094 11.6115 2.1026 11.9816 1.93178L11.9817 1.93176C13.9501 1.02325 15.9898 3.06287 15.0812 5.03139L14.3531 4.6953L15.0812 5.03139C14.9104 5.40156 15.0821 5.83873 15.4533 5.99343L15.1449 6.73372L15.4533 5.99343C17.3554 6.78593 17.3554 9.48043 15.4533 10.2729C15.0821 10.4276 14.9104 10.8649 15.0812 11.2349L14.3804 11.5584L15.0812 11.2349C15.9898 13.2034 13.9501 15.2431 11.9816 14.3345L12.2916 13.6631L11.9816 14.3345C11.6116 14.1637 11.1743 14.3354 11.0196 14.7066C10.2271 16.6087 7.53261 16.6087 6.74012 14.7066L7.48042 14.3982L6.74012 14.7066C6.58542 14.3354 6.14823 14.1637 5.77807 14.3345L5.442 13.6064L5.77807 14.3345C3.80955 15.2432 1.76996 13.2034 2.67847 11.235L2.67848 11.2349C2.8493 10.8649 2.67764 10.4276 2.30638 10.2729C0.404385 9.48041 0.404382 6.78594 2.30638 5.99343C2.67764 5.83873 2.84931 5.40153 2.67847 5.03138L2.67847 5.03137C1.76994 3.06289 3.80959 1.02324 5.77807 1.93176L5.77808 1.93177C6.14823 2.10261 6.58543 1.93094 6.74013 1.55967ZM9.53904 2.1766C9.2949 1.59066 8.46485 1.59066 8.22071 2.1766L8.2207 2.17661C7.71407 3.39246 6.29687 3.93777 5.10592 3.3881L5.442 2.65993L5.10592 3.3881C4.49141 3.10448 3.85118 3.74471 4.1348 4.35922L3.40663 4.6953L4.1348 4.35922C4.68447 5.55017 4.13916 6.96737 2.92331 7.474L2.9233 7.47401C2.33736 7.71815 2.33736 8.5482 2.9233 8.79234L2.92331 8.79234C4.13915 9.29896 4.68448 10.7162 4.13479 11.9071C3.85119 12.5217 4.49145 13.1618 5.1059 12.8782L5.10592 12.8782C6.29686 12.3286 7.71407 12.8738 8.2207 14.0897L8.22071 14.0897C8.46486 14.6757 9.29489 14.6757 9.53903 14.0897L9.53904 14.0897C10.0457 12.8739 11.4629 12.3285 12.6538 12.8782L12.3177 13.6064L12.6538 12.8782C13.2683 13.1619 13.9085 12.5216 13.6249 11.9071C13.0752 10.7162 13.6205 9.29896 14.8364 8.79234L14.8364 8.79234C15.4224 8.54819 15.4224 7.71816 14.8364 7.47401L14.8364 7.474C13.6205 6.96737 13.0752 5.55016 13.6249 4.35922L13.6249 4.3592C13.9085 3.74474 13.2684 3.10449 12.6538 3.38809C11.4629 3.93778 10.0457 3.39245 9.53904 2.17661L9.53904 2.1766Z" fill="currentColor"/>
<path fill-rule="evenodd" clip-rule="evenodd" d="M8.87992 6.52919C7.99404 6.52919 7.27596 7.24728 7.27596 8.13316C7.27596 9.01904 7.99404 9.73712 8.87992 9.73712C9.7658 9.73712 10.4839 9.01904 10.4839 8.13316C10.4839 7.24728 9.7658 6.52919 8.87992 6.52919ZM5.672 8.13316C5.672 6.36143 7.1082 4.92523 8.87992 4.92523C10.6516 4.92523 12.0878 6.36143 12.0878 8.13316C12.0878 9.90488 10.6516 11.3411 8.87992 11.3411C7.1082 11.3411 5.672 9.90488 5.672 8.13316Z" fill="currentColor"/>
</svg>
