<svg width="21" height="21" viewBox="0 0 21 21" fill="none" xmlns="http://www.w3.org/2000/svg">
<path d="M8.01375 10.053C8.50191 10.5412 8.50191 11.3326 8.01375 11.8208L7.20136 12.6332H14.2132C14.9035 12.6332 15.4632 13.1928 15.4632 13.8832C15.4632 14.5735 14.9035 15.1332 14.2132 15.1332H7.20136L8.01375 15.9456C8.50191 16.4338 8.50191 17.2252 8.01375 17.7133C7.5256 18.2015 6.73415 18.2015 6.24599 17.7133L3.29971 14.767C2.81155 14.2789 2.81155 13.4874 3.29971 12.9993L6.24599 10.053C6.73415 9.56485 7.5256 9.56485 8.01375 10.053ZM13.7459 2.55301C14.2036 2.09536 14.9278 2.06676 15.4187 2.4672L15.5137 2.55301L18.4599 5.49928C18.9176 5.95693 18.9462 6.68114 18.5457 7.17211L18.4599 7.26705L15.5137 10.2133C15.0255 10.7015 14.2341 10.7015 13.7459 10.2133C13.2883 9.75568 13.2597 9.03143 13.6601 8.54051L13.7459 8.44559L14.5583 7.63317H7.54643C6.85607 7.63317 6.29643 7.07352 6.29643 6.38317C6.29643 5.73342 6.79217 5.19946 7.42604 5.13889L7.54643 5.13317H14.5583L13.7459 4.32077C13.2578 3.83262 13.2578 3.04116 13.7459 2.55301Z" fill="currentColor"/>
</svg>
